<svg width="185" height="35" viewBox="0 0 185 35" fill="none" xmlns="http://www.w3.org/2000/svg">
<path d="M12.5408 32.8552H0.259521V29.7213H12.7524C18.4273 29.7213 20.7988 26.4605 20.7988 22.9456C20.7988 19.5999 19.0625 16.5085 12.7524 16.5085H8.94108C4.07094 16.5085 0.471267 13.417 0.471267 8.92798C0.471267 4.26958 4.07094 1.09341 9.19518 1.09341H22.0693V4.22724H9.02578C5.46846 4.22724 3.77449 6.34469 3.77449 8.92798C3.77449 11.3419 5.46846 13.3746 9.02578 13.3746H12.7524C20.7565 13.3746 24.102 17.8213 24.102 22.9032C24.102 28.1545 20.6718 32.8552 12.5408 32.8552ZM60.2327 17.0167C60.2327 26.2911 53.2451 33.4905 43.7166 33.4905C34.2304 33.4905 27.2004 26.2911 27.2004 17.0167C27.2004 7.69986 34.2304 0.500519 43.7166 0.500519C53.2451 0.500519 60.2327 7.69986 60.2327 17.0167ZM30.5036 17.0167C30.5036 24.7242 36.0091 30.4413 43.7166 30.4413C51.4241 30.4413 56.9295 24.7242 56.9295 17.0167C56.9295 9.26678 51.4241 3.54965 43.7166 3.54965C36.0091 3.54965 30.5036 9.26678 30.5036 17.0167ZM78.7807 29.8908V32.8552H65.6524V1.09341H68.8286V29.8908H78.7807ZM102.238 32.8552L99.7824 23.0302H87.4165L84.9603 32.8552H81.5723L89.6186 1.09341H97.6227L105.627 32.8552H102.238ZM92.1596 4.05784L88.1788 20.0657H99.0625L95.0817 4.05784H92.1596ZM121.747 20.1504H113.7V32.8552H110.524V1.09341H121.705C128.65 1.09341 132.672 5.11657 132.672 10.5796C132.672 14.6875 130.47 17.9907 126.489 19.3882L132.546 32.8552H129.073L123.314 20.0657C122.806 20.1081 122.297 20.1504 121.747 20.1504ZM121.916 4.05784H113.7V17.186H121.747C127.252 17.186 129.37 14.0946 129.37 10.5796C129.37 7.23402 127.294 4.05784 121.916 4.05784ZM157.348 29.8908V32.8552H137.571V1.09341H156.671V4.05784H140.748V14.2217H155.993V17.186H140.748V29.8908H157.348ZM172.591 32.8552H160.309V29.7213H172.802C178.476 29.7213 180.848 26.4605 180.848 22.9456C180.848 19.5999 179.112 16.5085 172.802 16.5085H168.991C164.12 16.5085 160.521 13.417 160.521 8.92798C160.521 4.26958 164.12 1.09341 169.245 1.09341H182.119V4.22724H169.076C165.518 4.22724 163.824 6.34469 163.824 8.92798C163.824 11.3419 165.518 13.3746 169.076 13.3746H172.802C180.806 13.3746 184.152 17.8213 184.152 22.9032C184.152 28.1545 180.722 32.8552 172.591 32.8552Z" fill="#4CC9F0"/>
</svg>
